<svg xmlns="http://www.w3.org/2000/svg" viewBox="0 0 640 480">
  <defs>
    <clipPath id="a">
      <path d="M0 0v480h640V0z"/>
    </clipPath>
  </defs>
  <g fill-rule="evenodd" clip-path="url(#a)">
    <path fill="#006" d="M0 0h640v480H0z"/>
    <g fill="#fff">
      <path d="M0 0v27L54 80H0v53h81L0 215v265h53L215 318v162h107V318l162 162h53V215L375 133h265V80H375L533 27V0H426L320 106 214 0z"/>
      <path d="M241 0v480h158V0zm-241 160v160h640V160z"/>
      <path d="M0 193v94h640v-94zm270 0v480h100V193z" fill="#c8102e"/>
    </g>
    <g fill="#fff">
      <path d="M428 311l-1 48 23-12 23 12-1-48 35-35-35-35 1-48-23 12-23-12 1 48-35 35z"/>
      <path d="M570 206l-1 17 8-4 8 4-1-17 13-13-13-13 1-17-8 4-8-4 1 17-13 13z"/>
      <path d="M493 83l0 17 8-4 8 4 0-17 13-13-13-13 0-17-8 4-8-4 0 17-13 13z"/>
      <path d="M539 146l0 17 8-4 8 4 0-17 13-13-13-13 0-17-8 4-8-4 0 17-13 13z"/>
      <path d="M516 219l0 17 8-4 8 4 0-17 13-13-13-13 0-17-8 4-8-4 0 17-13 13z"/>
      <path d="M470 241l0 17 8-4 8 4 0-17 13-13-13-13 0-17-8 4-8-4 0 17-13 13z"/>
    </g>
  </g>
</svg>
