<svg xmlns="http://www.w3.org/2000/svg" viewBox="0 0 640 480">
  <g fill-rule="evenodd">
    <path fill="#009739" d="M0 0h640v480H0z"/>
    <path fill="#fedf00" d="M321.4 436L54.3 244h534.2L321.4 436zM321.4 44l267.1 192H54.3L321.4 44z"/>
    <circle r="83.5" fill="#002776" cx="321.4" cy="240"/>
    <path d="M283.3 316.3l-4-2.8h5l-1 2.8zm8.4 0l-4-2.8h5l-1 2.8zm8.4 0l-4-2.8h5l-1 2.8zm8.4 0l-4-2.8h5l-1 2.8zm8.3 0l-4-2.8h5l-1 2.8zm8.4 0l-4-2.8h5l-1 2.8zm8.4 0l-4-2.8h5l-1 2.8zm8.4 0l-4-2.8h5l-1 2.8zm8.3 0l-4-2.8h5l-1 2.8zm8.4 0l-4-2.8h5l-1 2.8z" fill="#fff"/>
    <path d="M219.3 287.7c-2.3-1.2-4.8-2.8-4.8-2.8l.8-1.6 5 2.4s0 .8-1 2zm5.2-5.2l-5-2.4.8-1.5 5 2.4-.8 1.5zm5.2-5.1l-5-2.4.8-1.6 5 2.4-.8 1.6zm5.1-5.2l-5-2.4.8-1.5 5 2.4-.8 1.5zm5.2-5.1l-5-2.4.8-1.6 5 2.4-.8 1.6zm5.2-5.2l-5-2.4.8-1.5 5 2.4-.8 1.5zm5.1-5.1l-5-2.4.8-1.6 5 2.4-.8 1.6zm5.2-5.2l-5-2.4.8-1.5 5 2.4-.8 1.5zm5.2-5.1l-5-2.4.8-1.6 5 2.4-.8 1.6z" fill="#fff"/>
  </g>
</svg>
