<svg xmlns="http://www.w3.org/2000/svg" viewBox="0 0 640 480">
  <path fill="#012169" d="M0 0h640v480H0z"/>
  <path fill="#fff" d="M75 0l244 181L562 0h78v62L400 241l240 178v61h-80L320 301L81 480H0v-60l239-178L0 64V0h75z"/>
  <path fill="#c8102e" d="M424 281l216 159v40L369 281h55zm-184 20l6 35L54 480H0l246-179zM640 0v3L391 191l2-44L590 0h50zM0 0l239 176h-60L0 42V0z"/>
  <path fill="#fff" d="M241 0v480h158V0H241zM0 160v160h640V160H0z"/>
  <path fill="#c8102e" d="M0 193v94h640v-94H0zM270 0v480h100V0H270z"/>
</svg>
