<svg xmlns="http://www.w3.org/2000/svg" viewBox="0 0 640 480">
  <defs>
    <clipPath id="a">
      <path d="M0 0v480h640V0z"/>
    </clipPath>
  </defs>
  <g fill-rule="evenodd" clip-path="url(#a)">
    <path fill="#00247d" d="M0 0h640v480H0z"/>
    <g fill="#fff">
      <path d="M0 0v27L54 80H0v53h81L0 215v265h53L215 318v162h107V318l162 162h53V215L375 133h265V80H375L533 27V0H426L320 106 214 0z"/>
      <path d="M241 0v480h158V0zm-241 160v160h640V160z"/>
      <path d="M0 193v94h640v-94zm270 0v480h100V193z" fill="#cc142b"/>
    </g>
    <g fill="#fff">
      <path d="M428 281l9 27 28-9-17 23 17 23-28-9-9 27-9-27-28 9 17-23-17-23 28 9z"/>
      <path d="M512 200l7 20 21-7-13 17 13 17-21-7-7 20-7-20-21 7 13-17-13-17 21 7z"/>
      <path d="M570 281l7 20 21-7-13 17 13 17-21-7-7 20-7-20-21 7 13-17-13-17 21 7z"/>
      <path d="M512 362l7 20 21-7-13 17 13 17-21-7-7 20-7-20-21 7 13-17-13-17 21 7z"/>
    </g>
  </g>
</svg>
