<svg xmlns="http://www.w3.org/2000/svg" viewBox="0 0 640 480">
  <defs>
    <clipPath id="a">
      <path d="M0 0h640v480H0z"/>
    </clipPath>
  </defs>
  <g fill-rule="evenodd" clip-path="url(#a)">
    <path fill="#000001" d="M0 0h213v480H0z"/>
    <path fill="#000001" d="M0 0h640v160H0z"/>
    <path fill="#000001" d="M0 320h640v160H0z"/>
    <path fill="#007749" d="M213 188L427 95h213v98L427 286H213z"/>
    <path fill="#fff" d="M0 106l107 74L0 254v-14l93-60L0 120z"/>
    <path fill="#de3831" d="M160 0h53L0 160v14h107L267 95h53L107 254H53L213 375h-53L0 215v-14L160 40z"/>
    <path fill="#ffb612" d="M160 96L0 215v-14l93-61z"/>
    <path fill="#001489" d="M427 0v480h213V95z"/>
  </g>
</svg>
